{
	"asset":{
		"generator":"Khronos glTF Blender I/O v4.1.62",
		"version":"2.0"
	},
	"extensionsUsed":[
		"KHR_materials_emissive_strength"
	],
	"scene":0,
	"scenes":[
		{
			"name":"Scene",
			"nodes":[
				0,
				1,
				2,
				3,
				4,
				5,
				6,
				7,
				8,
				9,
				10
			]
		}
	],
	"nodes":[
		{
			"mesh":0,
			"name":"Cylinder",
			"scale":[
				0.9021308422088623,
				0.9021308422088623,
				0.9021308422088623
			],
			"translation":[
				-14.392943382263184,
				2.6560826301574707,
				4.146848201751709
			]
		},
		{
			"mesh":1,
			"name":"Cylinder.002",
			"scale":[
				0.38418662548065186,
				0.624328076839447,
				0.21073831617832184
			],
			"translation":[
				-14.392943382263184,
				0.8291802406311035,
				4.5987701416015625
			]
		},
		{
			"mesh":2,
			"name":"Cylinder.001",
			"rotation":[
				0,
				0,
				-1,
				0
			],
			"scale":[
				-0.38418662548065186,
				-0.624328076839447,
				-0.21073831617832184
			],
			"translation":[
				-14.392943382263184,
				0.8291802406311035,
				3.6474313735961914
			]
		},
		{
			"mesh":3,
			"name":"Cylinder.003",
			"rotation":[
				-0.8843451738357544,
				0,
				0,
				0.46683377027511597
			],
			"scale":[
				0.1176736131310463,
				0.11767363548278809,
				0.11767363548278809
			],
			"translation":[
				-14.328754425048828,
				3.6417953968048096,
				3.2731940746307373
			]
		},
		{
			"mesh":4,
			"name":"Cone",
			"rotation":[
				-0.8878947496414185,
				0,
				0,
				0.460046648979187
			],
			"scale":[
				0.40181049704551697,
				0.4018104672431946,
				0.4018104672431946
			],
			"translation":[
				-14.392943382263184,
				3.0930397510528564,
				2.4742367267608643
			]
		},
		{
			"mesh":5,
			"name":"Cylinder.004",
			"rotation":[
				0,
				0.8843451738357544,
				-0.4668337106704712,
				0
			],
			"scale":[
				-0.1176736131310463,
				-0.11767362803220749,
				-0.11767362803220749
			],
			"translation":[
				-14.328754425048828,
				3.6417953968048096,
				5.051614761352539
			]
		},
		{
			"mesh":6,
			"name":"Cone.001",
			"rotation":[
				0,
				0.8878948092460632,
				-0.4600467383861542,
				0
			],
			"scale":[
				-0.40181049704551697,
				-0.4018104374408722,
				-0.4018104374408722
			],
			"translation":[
				-14.392943382263184,
				3.0930397510528564,
				5.850574016571045
			]
		},
		{
			"mesh":7,
			"name":"Cylinder.005",
			"scale":[
				0.27343282103538513,
				0.27343282103538513,
				0.27343282103538513
			],
			"translation":[
				-14.392943382263184,
				4.225094318389893,
				4.189814567565918
			]
		},
		{
			"mesh":8,
			"name":"Sphere",
			"rotation":[
				0,
				0.4732189476490021,
				0,
				0.8809449672698975
			],
			"scale":[
				1.2581942081451416,
				1.258194088935852,
				1.2581942081451416
			],
			"translation":[
				-14.392943382263184,
				5.420958995819092,
				4.199215412139893
			]
		},
		{
			"mesh":9,
			"name":"Cylinder.007",
			"scale":[
				0.13212287425994873,
				0.13212287425994873,
				0.13212287425994873
			],
			"translation":[
				-14.391902923583984,
				1.4615181684494019,
				3.4748363494873047
			]
		},
		{
			"mesh":10,
			"name":"Cylinder.006",
			"scale":[
				0.13212287425994873,
				0.13212287425994873,
				0.13212287425994873
			],
			"translation":[
				-14.391902923583984,
				1.4615181684494019,
				4.768369674682617
			]
		}
	],
	"animations":[
		{
			"channels":[
				{
					"sampler":0,
					"target":{
						"node":8,
						"path":"rotation"
					}
				}
			],
			"name":"SphereAction.001",
			"samplers":[
				{
					"input":52,
					"interpolation":"LINEAR",
					"output":53
				}
			]
		}
	],
	"materials":[
		{
			"doubleSided":true,
			"name":"Material.005",
			"pbrMetallicRoughness":{
				"baseColorTexture":{
					"index":0
				},
				"metallicFactor":0,
				"roughnessFactor":0.5
			}
		},
		{
			"doubleSided":true,
			"name":"Material.009",
			"pbrMetallicRoughness":{
				"baseColorFactor":[
					0.05433645844459534,
					0.057482652366161346,
					0.05205824226140976,
					1
				],
				"metallicFactor":0.21978023648262024,
				"roughnessFactor":0.30219778418540955
			}
		},
		{
			"doubleSided":true,
			"emissiveFactor":[
				1,
				0.37652409076690674,
				0.36286479234695435
			],
			"extensions":{
				"KHR_materials_emissive_strength":{
					"emissiveStrength":20
				}
			},
			"name":"Material.010",
			"pbrMetallicRoughness":{
				"baseColorFactor":[
					0,
					0,
					0,
					1
				]
			}
		}
	],
	"meshes":[
		{
			"name":"Cylinder",
			"primitives":[
				{
					"attributes":{
						"POSITION":0,
						"NORMAL":1,
						"TEXCOORD_0":2
					},
					"indices":3,
					"material":0
				}
			]
		},
		{
			"name":"Cylinder.002",
			"primitives":[
				{
					"attributes":{
						"POSITION":4,
						"NORMAL":5,
						"TEXCOORD_0":6
					},
					"indices":7,
					"material":0
				},
				{
					"attributes":{
						"POSITION":8,
						"NORMAL":9,
						"TEXCOORD_0":10
					},
					"indices":11,
					"material":1
				}
			]
		},
		{
			"name":"Cylinder.003",
			"primitives":[
				{
					"attributes":{
						"POSITION":12,
						"NORMAL":13,
						"TEXCOORD_0":14
					},
					"indices":15,
					"material":0
				},
				{
					"attributes":{
						"POSITION":16,
						"NORMAL":17,
						"TEXCOORD_0":18
					},
					"indices":19,
					"material":1
				}
			]
		},
		{
			"name":"Cylinder.004",
			"primitives":[
				{
					"attributes":{
						"POSITION":20,
						"NORMAL":21,
						"TEXCOORD_0":22
					},
					"indices":23,
					"material":1
				}
			]
		},
		{
			"name":"Cone.001",
			"primitives":[
				{
					"attributes":{
						"POSITION":24,
						"NORMAL":25,
						"TEXCOORD_0":26
					},
					"indices":27,
					"material":0
				}
			]
		},
		{
			"name":"Cylinder.001",
			"primitives":[
				{
					"attributes":{
						"POSITION":28,
						"NORMAL":29,
						"TEXCOORD_0":30
					},
					"indices":23,
					"material":1
				}
			]
		},
		{
			"name":"Cone.002",
			"primitives":[
				{
					"attributes":{
						"POSITION":31,
						"NORMAL":32,
						"TEXCOORD_0":33
					},
					"indices":27,
					"material":0
				}
			]
		},
		{
			"name":"Cylinder.005",
			"primitives":[
				{
					"attributes":{
						"POSITION":34,
						"NORMAL":35,
						"TEXCOORD_0":36
					},
					"indices":3,
					"material":1
				}
			]
		},
		{
			"name":"Sphere",
			"primitives":[
				{
					"attributes":{
						"POSITION":37,
						"NORMAL":38,
						"TEXCOORD_0":39
					},
					"indices":40,
					"material":0
				},
				{
					"attributes":{
						"POSITION":41,
						"NORMAL":42,
						"TEXCOORD_0":43
					},
					"indices":44,
					"material":2
				}
			]
		},
		{
			"name":"Cylinder.007",
			"primitives":[
				{
					"attributes":{
						"POSITION":45,
						"NORMAL":46,
						"TEXCOORD_0":47
					},
					"indices":48,
					"material":2
				}
			]
		},
		{
			"name":"Cylinder.006",
			"primitives":[
				{
					"attributes":{
						"POSITION":49,
						"NORMAL":50,
						"TEXCOORD_0":51
					},
					"indices":48,
					"material":2
				}
			]
		}
	],
	"textures":[
		{
			"sampler":0,
			"source":0
		}
	],
	"images":[
		{
			"mimeType":"image/jpeg",
			"name":"18129307.jpg",
			"uri":"18129307_jpg.jpg"
		}
	],
	"accessors":[
		{
			"bufferView":0,
			"componentType":5126,
			"count":130,
			"max":[
				1,
				1.4838948249816895,
				1
			],
			"min":[
				-1,
				-1,
				-1
			],
			"type":"VEC3"
		},
		{
			"bufferView":1,
			"componentType":5126,
			"count":130,
			"type":"VEC3"
		},
		{
			"bufferView":2,
			"componentType":5126,
			"count":130,
			"type":"VEC2"
		},
		{
			"bufferView":3,
			"componentType":5123,
			"count":372,
			"type":"SCALAR"
		},
		{
			"bufferView":4,
			"componentType":5126,
			"count":120,
			"max":[
				1,
				1.4838948249816895,
				1.2404028177261353
			],
			"min":[
				-1,
				-1.5207523107528687,
				-1.9601858854293823
			],
			"type":"VEC3"
		},
		{
			"bufferView":5,
			"componentType":5126,
			"count":120,
			"type":"VEC3"
		},
		{
			"bufferView":6,
			"componentType":5126,
			"count":120,
			"type":"VEC2"
		},
		{
			"bufferView":7,
			"componentType":5123,
			"count":366,
			"type":"SCALAR"
		},
		{
			"bufferView":8,
			"componentType":5126,
			"count":138,
			"max":[
				2.301666736602783,
				-1,
				1.9705413579940796
			],
			"min":[
				-1.8662948608398438,
				-1.5207523107528687,
				-1.9601858854293823
			],
			"type":"VEC3"
		},
		{
			"bufferView":9,
			"componentType":5126,
			"count":138,
			"type":"VEC3"
		},
		{
			"bufferView":10,
			"componentType":5126,
			"count":138,
			"type":"VEC2"
		},
		{
			"bufferView":11,
			"componentType":5123,
			"count":498,
			"type":"SCALAR"
		},
		{
			"bufferView":12,
			"componentType":5126,
			"count":116,
			"max":[
				1,
				1.4838948249816895,
				1.2404028177261353
			],
			"min":[
				-1,
				-1,
				-1
			],
			"type":"VEC3"
		},
		{
			"bufferView":13,
			"componentType":5126,
			"count":116,
			"type":"VEC3"
		},
		{
			"bufferView":14,
			"componentType":5126,
			"count":116,
			"type":"VEC2"
		},
		{
			"bufferView":15,
			"componentType":5123,
			"count":360,
			"type":"SCALAR"
		},
		{
			"bufferView":16,
			"componentType":5126,
			"count":139,
			"max":[
				2.301666736602783,
				-1,
				1.9705413579940796
			],
			"min":[
				-1.8662948608398438,
				-1.5207523107528687,
				-1.9601858854293823
			],
			"type":"VEC3"
		},
		{
			"bufferView":17,
			"componentType":5126,
			"count":139,
			"type":"VEC3"
		},
		{
			"bufferView":18,
			"componentType":5126,
			"count":139,
			"type":"VEC2"
		},
		{
			"bufferView":19,
			"componentType":5123,
			"count":504,
			"type":"SCALAR"
		},
		{
			"bufferView":20,
			"componentType":5126,
			"count":163,
			"max":[
				1.0000001192092896,
				5.726325988769531,
				1
			],
			"min":[
				-1,
				-1,
				-1
			],
			"type":"VEC3"
		},
		{
			"bufferView":21,
			"componentType":5126,
			"count":163,
			"type":"VEC3"
		},
		{
			"bufferView":22,
			"componentType":5126,
			"count":163,
			"type":"VEC2"
		},
		{
			"bufferView":23,
			"componentType":5123,
			"count":564,
			"type":"SCALAR"
		},
		{
			"bufferView":24,
			"componentType":5126,
			"count":65,
			"max":[
				0.6081660985946655,
				3.401264190673828,
				1.2254273891448975
			],
			"min":[
				-0.6081660985946655,
				-1.1102863550186157,
				-1.2366161346435547
			],
			"type":"VEC3"
		},
		{
			"bufferView":25,
			"componentType":5126,
			"count":65,
			"type":"VEC3"
		},
		{
			"bufferView":26,
			"componentType":5126,
			"count":65,
			"type":"VEC2"
		},
		{
			"bufferView":27,
			"componentType":5123,
			"count":186,
			"type":"SCALAR"
		},
		{
			"bufferView":28,
			"componentType":5126,
			"count":163,
			"max":[
				1.0000001192092896,
				5.726325988769531,
				1
			],
			"min":[
				-1,
				-1,
				-1
			],
			"type":"VEC3"
		},
		{
			"bufferView":29,
			"componentType":5126,
			"count":163,
			"type":"VEC3"
		},
		{
			"bufferView":30,
			"componentType":5126,
			"count":163,
			"type":"VEC2"
		},
		{
			"bufferView":31,
			"componentType":5126,
			"count":65,
			"max":[
				0.6081660985946655,
				3.401264190673828,
				1.2254273891448975
			],
			"min":[
				-0.6081660985946655,
				-1.1102863550186157,
				-1.2366161346435547
			],
			"type":"VEC3"
		},
		{
			"bufferView":32,
			"componentType":5126,
			"count":65,
			"type":"VEC3"
		},
		{
			"bufferView":33,
			"componentType":5126,
			"count":65,
			"type":"VEC2"
		},
		{
			"bufferView":34,
			"componentType":5126,
			"count":130,
			"max":[
				1,
				2.4138779640197754,
				1
			],
			"min":[
				-1,
				-1,
				-1
			],
			"type":"VEC3"
		},
		{
			"bufferView":35,
			"componentType":5126,
			"count":130,
			"type":"VEC3"
		},
		{
			"bufferView":36,
			"componentType":5126,
			"count":130,
			"type":"VEC2"
		},
		{
			"bufferView":37,
			"componentType":5126,
			"count":361,
			"max":[
				0.988511860370636,
				0.38920092582702637,
				0.9415585994720459
			],
			"min":[
				-0.9922722578048706,
				-0.899686336517334,
				-1.0584406852722168
			],
			"type":"VEC3"
		},
		{
			"bufferView":38,
			"componentType":5126,
			"count":361,
			"type":"VEC3"
		},
		{
			"bufferView":39,
			"componentType":5126,
			"count":361,
			"type":"VEC2"
		},
		{
			"bufferView":40,
			"componentType":5123,
			"count":1692,
			"type":"SCALAR"
		},
		{
			"bufferView":41,
			"componentType":5126,
			"count":28,
			"max":[
				0.9278991222381592,
				-0.4157087504863739,
				0.49779030680656433
			],
			"min":[
				0.6392936706542969,
				-0.6107990741729736,
				-0.614010751247406
			],
			"type":"VEC3"
		},
		{
			"bufferView":42,
			"componentType":5126,
			"count":28,
			"type":"VEC3"
		},
		{
			"bufferView":43,
			"componentType":5126,
			"count":28,
			"type":"VEC2"
		},
		{
			"bufferView":44,
			"componentType":5123,
			"count":120,
			"type":"SCALAR"
		},
		{
			"bufferView":45,
			"componentType":5126,
			"count":192,
			"max":[
				0.8600965142250061,
				2.979518413543701,
				0.8600975871086121
			],
			"min":[
				-0.860098659992218,
				-9.849420547485352,
				-0.8600975871086121
			],
			"type":"VEC3"
		},
		{
			"bufferView":46,
			"componentType":5126,
			"count":192,
			"type":"VEC3"
		},
		{
			"bufferView":47,
			"componentType":5126,
			"count":192,
			"type":"VEC2"
		},
		{
			"bufferView":48,
			"componentType":5123,
			"count":372,
			"type":"SCALAR"
		},
		{
			"bufferView":49,
			"componentType":5126,
			"count":192,
			"max":[
				0.8600965142250061,
				2.979518413543701,
				0.8600975871086121
			],
			"min":[
				-0.860098659992218,
				-9.849420547485352,
				-0.8600975871086121
			],
			"type":"VEC3"
		},
		{
			"bufferView":50,
			"componentType":5126,
			"count":192,
			"type":"VEC3"
		},
		{
			"bufferView":51,
			"componentType":5126,
			"count":192,
			"type":"VEC2"
		},
		{
			"bufferView":52,
			"componentType":5126,
			"count":173,
			"max":[
				5.766666666666667
			],
			"min":[
				0.03333333333333333
			],
			"type":"SCALAR"
		},
		{
			"bufferView":53,
			"componentType":5126,
			"count":173,
			"type":"VEC4"
		}
	],
	"bufferViews":[
		{
			"buffer":0,
			"byteLength":1560,
			"byteOffset":0,
			"target":34962
		},
		{
			"buffer":0,
			"byteLength":1560,
			"byteOffset":1560,
			"target":34962
		},
		{
			"buffer":0,
			"byteLength":1040,
			"byteOffset":3120,
			"target":34962
		},
		{
			"buffer":0,
			"byteLength":744,
			"byteOffset":4160,
			"target":34963
		},
		{
			"buffer":0,
			"byteLength":1440,
			"byteOffset":4904,
			"target":34962
		},
		{
			"buffer":0,
			"byteLength":1440,
			"byteOffset":6344,
			"target":34962
		},
		{
			"buffer":0,
			"byteLength":960,
			"byteOffset":7784,
			"target":34962
		},
		{
			"buffer":0,
			"byteLength":732,
			"byteOffset":8744,
			"target":34963
		},
		{
			"buffer":0,
			"byteLength":1656,
			"byteOffset":9476,
			"target":34962
		},
		{
			"buffer":0,
			"byteLength":1656,
			"byteOffset":11132,
			"target":34962
		},
		{
			"buffer":0,
			"byteLength":1104,
			"byteOffset":12788,
			"target":34962
		},
		{
			"buffer":0,
			"byteLength":996,
			"byteOffset":13892,
			"target":34963
		},
		{
			"buffer":0,
			"byteLength":1392,
			"byteOffset":14888,
			"target":34962
		},
		{
			"buffer":0,
			"byteLength":1392,
			"byteOffset":16280,
			"target":34962
		},
		{
			"buffer":0,
			"byteLength":928,
			"byteOffset":17672,
			"target":34962
		},
		{
			"buffer":0,
			"byteLength":720,
			"byteOffset":18600,
			"target":34963
		},
		{
			"buffer":0,
			"byteLength":1668,
			"byteOffset":19320,
			"target":34962
		},
		{
			"buffer":0,
			"byteLength":1668,
			"byteOffset":20988,
			"target":34962
		},
		{
			"buffer":0,
			"byteLength":1112,
			"byteOffset":22656,
			"target":34962
		},
		{
			"buffer":0,
			"byteLength":1008,
			"byteOffset":23768,
			"target":34963
		},
		{
			"buffer":0,
			"byteLength":1956,
			"byteOffset":24776,
			"target":34962
		},
		{
			"buffer":0,
			"byteLength":1956,
			"byteOffset":26732,
			"target":34962
		},
		{
			"buffer":0,
			"byteLength":1304,
			"byteOffset":28688,
			"target":34962
		},
		{
			"buffer":0,
			"byteLength":1128,
			"byteOffset":29992,
			"target":34963
		},
		{
			"buffer":0,
			"byteLength":780,
			"byteOffset":31120,
			"target":34962
		},
		{
			"buffer":0,
			"byteLength":780,
			"byteOffset":31900,
			"target":34962
		},
		{
			"buffer":0,
			"byteLength":520,
			"byteOffset":32680,
			"target":34962
		},
		{
			"buffer":0,
			"byteLength":372,
			"byteOffset":33200,
			"target":34963
		},
		{
			"buffer":0,
			"byteLength":1956,
			"byteOffset":33572,
			"target":34962
		},
		{
			"buffer":0,
			"byteLength":1956,
			"byteOffset":35528,
			"target":34962
		},
		{
			"buffer":0,
			"byteLength":1304,
			"byteOffset":37484,
			"target":34962
		},
		{
			"buffer":0,
			"byteLength":780,
			"byteOffset":38788,
			"target":34962
		},
		{
			"buffer":0,
			"byteLength":780,
			"byteOffset":39568,
			"target":34962
		},
		{
			"buffer":0,
			"byteLength":520,
			"byteOffset":40348,
			"target":34962
		},
		{
			"buffer":0,
			"byteLength":1560,
			"byteOffset":40868,
			"target":34962
		},
		{
			"buffer":0,
			"byteLength":1560,
			"byteOffset":42428,
			"target":34962
		},
		{
			"buffer":0,
			"byteLength":1040,
			"byteOffset":43988,
			"target":34962
		},
		{
			"buffer":0,
			"byteLength":4332,
			"byteOffset":45028,
			"target":34962
		},
		{
			"buffer":0,
			"byteLength":4332,
			"byteOffset":49360,
			"target":34962
		},
		{
			"buffer":0,
			"byteLength":2888,
			"byteOffset":53692,
			"target":34962
		},
		{
			"buffer":0,
			"byteLength":3384,
			"byteOffset":56580,
			"target":34963
		},
		{
			"buffer":0,
			"byteLength":336,
			"byteOffset":59964,
			"target":34962
		},
		{
			"buffer":0,
			"byteLength":336,
			"byteOffset":60300,
			"target":34962
		},
		{
			"buffer":0,
			"byteLength":224,
			"byteOffset":60636,
			"target":34962
		},
		{
			"buffer":0,
			"byteLength":240,
			"byteOffset":60860,
			"target":34963
		},
		{
			"buffer":0,
			"byteLength":2304,
			"byteOffset":61100,
			"target":34962
		},
		{
			"buffer":0,
			"byteLength":2304,
			"byteOffset":63404,
			"target":34962
		},
		{
			"buffer":0,
			"byteLength":1536,
			"byteOffset":65708,
			"target":34962
		},
		{
			"buffer":0,
			"byteLength":744,
			"byteOffset":67244,
			"target":34963
		},
		{
			"buffer":0,
			"byteLength":2304,
			"byteOffset":67988,
			"target":34962
		},
		{
			"buffer":0,
			"byteLength":2304,
			"byteOffset":70292,
			"target":34962
		},
		{
			"buffer":0,
			"byteLength":1536,
			"byteOffset":72596,
			"target":34962
		},
		{
			"buffer":0,
			"byteLength":692,
			"byteOffset":74132
		},
		{
			"buffer":0,
			"byteLength":2768,
			"byteOffset":74824
		}
	],
	"samplers":[
		{
			"magFilter":9729,
			"minFilter":9987
		}
	],
	"buffers":[
		{
			"byteLength":77592,
			"uri":"asasdasd.bin"
		}
	]
}
